<svg version="1.0" xmlns="http://www.w3.org/2000/svg" width="32" height="32" viewBox="0 0 107.000000 108.000000" preserveAspectRatio="xMidYMid meet">
<g transform="translate(0.000000,108.000000) scale(0.100000,-0.100000)" fill="#000000" stroke="none">
<path d="M199 953 c-13 -3 -17 -24 -22 -99 -4 -53 -20 -199 -37 -325 -17 -126
-30 -246 -28 -267 l3 -37 183 0 c204 0 213 3 204 66 -4 30 -6 31 -41 25 -84
-14 -218 -19 -225 -7 -4 6 -2 55 4 109 18 163 9 148 103 157 93 8 107 15 107
56 l0 29 -91 0 c-91 0 -91 0 -85 23 3 13 9 56 12 96 4 41 13 79 21 87 17 17
100 18 188 4 52 -9 62 -8 72 7 22 28 16 70 -9 77 -26 6 -334 6 -359 -1z"/>
<path d="M786 885 c-10 -114 -74 -560 -87 -608 -14 -54 -31 -72 -86 -93 -40
-16 -44 -20 -41 -47 4 -43 27 -54 78 -38 57 17 130 91 152 156 10 28 34 160
54 295 20 135 41 278 47 318 13 86 9 92 -64 92 l-46 0 -7 -75z"/>
</g>
</svg>